<svg width="260" height="80" viewBox="0 0 260 80" fill="none" xmlns="http://www.w3.org/2000/svg">
<path d="M80.3867 32.756C80.9627 31.82 81.7907 31.064 82.8707 30.488C83.9507 29.912 85.1867 29.624 86.5787 29.624C88.2347 29.624 89.7347 30.044 91.0787 30.884C92.4227 31.724 93.4787 32.924 94.2467 34.484C95.0387 36.044 95.4347 37.856 95.4347 39.92C95.4347 41.984 95.0387 43.808 94.2467 45.392C93.4787 46.952 92.4227 48.164 91.0787 49.028C89.7347 49.868 88.2347 50.288 86.5787 50.288C85.1627 50.288 83.9267 50.012 82.8707 49.46C81.8147 48.884 80.9867 48.128 80.3867 47.192V50H74.2307V23.36H80.3867V32.756ZM89.1707 39.92C89.1707 38.384 88.7387 37.184 87.8747 36.32C87.0347 35.432 85.9907 34.988 84.7427 34.988C83.5187 34.988 82.4747 35.432 81.6107 36.32C80.7707 37.208 80.3507 38.42 80.3507 39.956C80.3507 41.492 80.7707 42.704 81.6107 43.592C82.4747 44.48 83.5187 44.924 84.7427 44.924C85.9667 44.924 87.0107 44.48 87.8747 43.592C88.7387 42.68 89.1707 41.456 89.1707 39.92ZM97.4403 39.92C97.4403 37.856 97.8243 36.044 98.5923 34.484C99.3843 32.924 100.452 31.724 101.796 30.884C103.14 30.044 104.64 29.624 106.296 29.624C107.712 29.624 108.948 29.912 110.004 30.488C111.084 31.064 111.912 31.82 112.488 32.756V29.912H118.644V50H112.488V47.156C111.888 48.092 111.048 48.848 109.968 49.424C108.912 50 107.676 50.288 106.26 50.288C104.628 50.288 103.14 49.868 101.796 49.028C100.452 48.164 99.3843 46.952 98.5923 45.392C97.8243 43.808 97.4403 41.984 97.4403 39.92ZM112.488 39.956C112.488 38.42 112.056 37.208 111.192 36.32C110.352 35.432 109.32 34.988 108.096 34.988C106.872 34.988 105.828 35.432 104.964 36.32C104.124 37.184 103.704 38.384 103.704 39.92C103.704 41.456 104.124 42.68 104.964 43.592C105.828 44.48 106.872 44.924 108.096 44.924C109.32 44.924 110.352 44.48 111.192 43.592C112.056 42.704 112.488 41.492 112.488 39.956ZM121.874 39.956C121.874 37.868 122.294 36.044 123.134 34.484C123.998 32.924 125.186 31.724 126.698 30.884C128.234 30.044 129.986 29.624 131.954 29.624C134.474 29.624 136.574 30.284 138.254 31.604C139.958 32.924 141.074 34.784 141.602 37.184H135.05C134.498 35.648 133.43 34.88 131.846 34.88C130.718 34.88 129.818 35.324 129.146 36.212C128.474 37.076 128.138 38.324 128.138 39.956C128.138 41.588 128.474 42.848 129.146 43.736C129.818 44.6 130.718 45.032 131.846 45.032C133.43 45.032 134.498 44.264 135.05 42.728H141.602C141.074 45.08 139.958 46.928 138.254 48.272C136.55 49.616 134.45 50.288 131.954 50.288C129.986 50.288 128.234 49.868 126.698 49.028C125.186 48.188 123.998 46.988 123.134 45.428C122.294 43.868 121.874 42.044 121.874 39.956ZM157.171 50L151.051 41.576V50H144.895V23.36H151.051V38.084L157.135 29.912H164.731L156.379 39.992L164.803 50H157.171ZM186.085 39.632C186.085 40.208 186.049 40.808 185.977 41.432H172.045C172.141 42.68 172.537 43.64 173.233 44.312C173.953 44.96 174.829 45.284 175.861 45.284C177.397 45.284 178.465 44.636 179.065 43.34H185.617C185.281 44.66 184.669 45.848 183.781 46.904C182.917 47.96 181.825 48.788 180.505 49.388C179.185 49.988 177.709 50.288 176.077 50.288C174.109 50.288 172.357 49.868 170.821 49.028C169.285 48.188 168.085 46.988 167.221 45.428C166.357 43.868 165.925 42.044 165.925 39.956C165.925 37.868 166.345 36.044 167.185 34.484C168.049 32.924 169.249 31.724 170.785 30.884C172.321 30.044 174.085 29.624 176.077 29.624C178.021 29.624 179.749 30.032 181.261 30.848C182.773 31.664 183.949 32.828 184.789 34.34C185.653 35.852 186.085 37.616 186.085 39.632ZM179.785 38.012C179.785 36.956 179.425 36.116 178.705 35.492C177.985 34.868 177.085 34.556 176.005 34.556C174.973 34.556 174.097 34.856 173.377 35.456C172.681 36.056 172.249 36.908 172.081 38.012H179.785ZM201.572 29.696C203.924 29.696 205.796 30.464 207.188 32C208.604 33.512 209.312 35.6 209.312 38.264V50H203.192V39.092C203.192 37.748 202.844 36.704 202.148 35.96C201.452 35.216 200.516 34.844 199.34 34.844C198.164 34.844 197.228 35.216 196.532 35.96C195.836 36.704 195.488 37.748 195.488 39.092V50H189.332V29.912H195.488V32.576C196.112 31.688 196.952 30.992 198.008 30.488C199.064 29.96 200.252 29.696 201.572 29.696ZM212.366 39.92C212.366 37.856 212.75 36.044 213.518 34.484C214.31 32.924 215.378 31.724 216.722 30.884C218.066 30.044 219.566 29.624 221.222 29.624C222.542 29.624 223.742 29.9 224.822 30.452C225.926 31.004 226.79 31.748 227.414 32.684V23.36H233.57V50H227.414V47.12C226.838 48.08 226.01 48.848 224.93 49.424C223.874 50 222.638 50.288 221.222 50.288C219.566 50.288 218.066 49.868 216.722 49.028C215.378 48.164 214.31 46.952 213.518 45.392C212.75 43.808 212.366 41.984 212.366 39.92ZM227.414 39.956C227.414 38.42 226.982 37.208 226.118 36.32C225.278 35.432 224.246 34.988 223.022 34.988C221.798 34.988 220.754 35.432 219.89 36.32C219.05 37.184 218.63 38.384 218.63 39.92C218.63 41.456 219.05 42.68 219.89 43.592C220.754 44.48 221.798 44.924 223.022 44.924C224.246 44.924 225.278 44.48 226.118 43.592C226.982 42.704 227.414 41.492 227.414 39.956Z" fill="#282828"/>
<path fill-rule="evenodd" clip-rule="evenodd" d="M62.794 36.502L59.2665 35.1507C59.0285 35.059 58.8116 34.9197 58.6291 34.7415C58.4465 34.5633 58.3022 34.3499 58.2047 34.1141C58.1073 33.8784 58.0588 33.6253 58.0622 33.3702C58.0657 33.1152 58.1209 32.8635 58.2247 32.6305L59.7603 29.1867C59.9169 28.8394 59.9637 28.4525 59.8944 28.0779C59.8251 27.7033 59.643 27.3587 59.3725 27.0904L56.9101 24.6237C56.6412 24.3541 56.2967 24.1727 55.9222 24.1034C55.5477 24.0342 55.1611 24.0804 54.8135 24.236L51.3701 25.7785C51.1367 25.8819 50.8847 25.9367 50.6295 25.9397C50.3743 25.9427 50.1211 25.8938 49.8854 25.7959C49.6496 25.6981 49.4362 25.5533 49.2582 25.3705C49.0801 25.1877 48.9411 24.9705 48.8495 24.7323L47.4994 21.2091C47.3633 20.8533 47.1223 20.5472 46.8084 20.3313C46.4945 20.1154 46.1224 19.9999 45.7414 20H42.256C41.8751 20 41.5032 20.1156 41.1894 20.3315C40.8756 20.5473 40.6348 20.8534 40.4987 21.2091L39.1512 24.7323C39.0596 24.9705 38.9205 25.1877 38.7425 25.3705C38.5644 25.5533 38.351 25.6981 38.1153 25.7959C37.8795 25.8938 37.6264 25.9427 37.3712 25.9397C37.1159 25.9367 36.864 25.8819 36.6306 25.7785L33.1839 24.2386C32.8363 24.083 32.4497 24.0368 32.0752 24.106C31.7008 24.1753 31.3562 24.3567 31.0873 24.6263L28.6223 27.0878C28.3528 27.3568 28.1715 27.7013 28.1022 28.0756C28.033 28.45 28.0791 28.8366 28.2345 29.1841L29.7747 32.6279C29.8785 32.8612 29.9337 33.1132 29.9369 33.3685C29.9402 33.6238 29.8913 33.8771 29.7934 34.113C29.6955 34.3488 29.5506 34.5622 29.3674 34.7402C29.1843 34.9182 28.9669 35.057 28.7283 35.1481L25.2092 36.4994C24.8535 36.6344 24.5473 36.8744 24.3313 37.1876C24.1153 37.5007 23.9998 37.8722 24 38.2526V41.7422C23.9998 42.1226 24.1153 42.4941 24.3313 42.8073C24.5473 43.1204 24.8535 43.3604 25.2092 43.4954L28.7283 44.8428C28.9672 44.9346 29.1849 45.074 29.3682 45.2527C29.5515 45.4313 29.6965 45.6453 29.7944 45.8818C29.8923 46.1182 29.941 46.3721 29.9376 46.628C29.9342 46.8839 29.8788 47.1364 29.7747 47.3702L28.2332 50.8113C28.0778 51.1589 28.0317 51.5455 28.1009 51.9198C28.1702 52.2942 28.3516 52.6387 28.621 52.9077L31.086 55.3763C31.3555 55.645 31.7 55.8259 32.0742 55.8951C32.4484 55.9643 32.8348 55.9186 33.1826 55.764L36.6267 54.2286C36.8599 54.1239 37.1121 54.068 37.3677 54.0644C37.6232 54.0607 37.8769 54.1094 38.113 54.2074C38.3491 54.3054 38.5626 54.4506 38.7405 54.6342C38.9183 54.8178 39.0568 55.0358 39.1473 55.2748L40.4948 58.7935C40.6309 59.1492 40.8717 59.4552 41.1855 59.6711C41.4993 59.887 41.8712 60.0026 42.2521 60.0026H45.7376C46.1185 60.0026 46.4904 59.887 46.8041 59.6711C47.1179 59.4552 47.3588 59.1492 47.4949 58.7935L48.8424 55.2748C48.9329 55.0358 49.0713 54.8178 49.2492 54.6342C49.427 54.4506 49.6406 54.3054 49.8767 54.2074C50.1128 54.1094 50.3664 54.0607 50.622 54.0644C50.8776 54.068 51.1297 54.1239 51.3629 54.2286L54.8168 55.7614C55.1645 55.916 55.5509 55.9617 55.9252 55.8925C56.2994 55.8233 56.6439 55.6424 56.9133 55.3737L59.3783 52.9051C59.6488 52.6368 59.8309 52.2922 59.9002 51.9176C59.9695 51.5429 59.9227 51.1561 59.7661 50.8087L58.2305 47.3695C58.1265 47.136 58.0709 46.8838 58.0673 46.6282C58.0637 46.3726 58.1121 46.1189 58.2095 45.8825C58.307 45.6462 58.4514 45.4321 58.6341 45.2532C58.8168 45.0744 59.0339 44.9345 59.2723 44.8422L62.7998 43.4948C63.1548 43.3592 63.4602 43.1189 63.6754 42.8058C63.8907 42.4927 64.0057 42.1215 64.0052 41.7416V38.252C64.0057 37.872 63.8907 37.5009 63.6754 37.1878C63.4602 36.8746 63.1548 36.6344 62.7998 36.4988M45.7414 48.7402C43.8656 49.1145 41.9191 48.8755 40.1896 48.0585C38.46 47.2416 37.0392 45.89 36.137 44.2035C35.2349 42.517 34.8992 40.585 35.1796 38.6931C35.4601 36.8012 36.3417 35.0496 37.6944 33.6973C39.047 32.3449 40.7988 31.4635 42.691 31.1833C44.5832 30.903 46.5153 31.2388 48.2019 32.1411C49.8885 33.0433 51.2402 34.4641 52.057 36.1935C52.8739 37.9229 53.1128 39.8692 52.7383 41.7448C52.3925 43.471 51.5436 45.0563 50.2985 46.3011C49.0535 47.5459 47.4679 48.3946 45.7414 48.7402Z" fill="#282828"/>
</svg>
